<?xml version="1.0" encoding="UTF-8"?><svg id="_레이어_2" xmlns="http://www.w3.org/2000/svg" xmlns:xlink="http://www.w3.org/1999/xlink" viewBox="0 0 3000 792"><defs><style>.cls-1{opacity:.5;}.cls-1,.cls-2{fill:none;}.cls-3{fill:#d1f4ff;}.cls-4{fill:url(#Gradient-2);}.cls-5{clip-path:url(#clippath);}.cls-6{fill:url(#Gradient);}</style><clipPath id="clippath"><rect class="cls-2" width="3000" height="792"/></clipPath><linearGradient id="Gradient" x1="-849.89" y1="-58.21" x2="741.34" y2="-58.21" gradientUnits="userSpaceOnUse"><stop offset=".21" stop-color="#003899"/><stop offset=".27" stop-color="#0069b7"/><stop offset=".47" stop-color="#0069b7"/><stop offset=".53" stop-color="#2390d4"/><stop offset=".74" stop-color="#2390d4"/><stop offset=".79" stop-color="#20aee5"/></linearGradient><linearGradient id="Gradient-2" x1="1846.28" y1="737.41" x2="3437.51" y2="737.41" xlink:href="#Gradient"/></defs><g id="_레이어_1-2"><rect class="cls-3" width="3000" height="792"/><g class="cls-5"><path class="cls-6" d="m-521.64-66.15c0,24.5,20.88,44.39,46.46,44.39s46.21-19.87,46.21-44.38v-391.57c0-86.9,73.5-157.43,164.3-157.43s164.2,70.53,164.2,157.43V-21.25c0,24.4,20.63,44.27,46.21,44.27,20.52,0,37.83-12.77,43.84-30.37,1.5-4.43,2.36-9.06,2.36-13.9v-144.46c0-86.9,73.5-157.33,164.3-157.33s164.2,70.43,164.2,157.33v33.67c0,24.51,20.63,44.38,46.21,44.38s46.21-19.87,46.21-44.38v-202.12c0-86.9,73.5-157.43,164.3-157.43s164.2,70.53,164.2,157.43V2.74c0,86.9-73.5,157.43-164.2,157.43S412.84,89.65,412.84,2.74V.89c0-24.51-20.63-44.27-46.21-44.27s-46.21,19.77-46.21,44.27v340.4c0,86.9-73.5,157.43-164.2,157.43S-8.07,428.19-8.07,341.29V111.58c0-4.84-.86-9.47-2.36-13.9-6.02-17.61-23.32-30.37-43.84-30.37-25.57,0-46.21,19.87-46.21,44.27v38.61c0,86.9-73.5,157.33-164.2,157.33s-164.3-70.43-164.3-157.33v-83.4c0-24.5-20.63-44.27-46.21-44.27s-46.21,19.77-46.21,44.27v212.72c0,86.9-73.5,157.43-164.2,157.43s-164.3-70.53-164.3-157.43V-57.39c0-86.9,73.61-157.43,164.3-157.43s159.2,65.84,163.94,148.67"/><rect class="cls-1" x="-1645.51" y="-1410.76" width="3182.47" height="2705.09"/><path class="cls-4" d="m2174.53,729.47c0,24.5,20.88,44.39,46.46,44.39s46.21-19.87,46.21-44.38v-391.57c0-86.9,73.5-157.43,164.3-157.43s164.2,70.53,164.2,157.43v436.46c0,24.4,20.63,44.27,46.21,44.27,20.52,0,37.83-12.77,43.84-30.37,1.5-4.43,2.36-9.06,2.36-13.9v-144.46c0-86.9,73.5-157.33,164.3-157.33s164.2,70.43,164.2,157.33v33.67c0,24.51,20.63,44.38,46.21,44.38s46.21-19.87,46.21-44.38v-202.12c0-86.9,73.5-157.43,164.3-157.43s164.2,70.53,164.2,157.43v336.9c0,86.9-73.5,157.43-164.2,157.43s-164.3-70.53-164.3-157.43v-1.85c0-24.51-20.63-44.27-46.21-44.27s-46.21,19.77-46.21,44.27v340.4c0,86.9-73.5,157.43-164.2,157.43s-164.3-70.53-164.3-157.43v-229.71c0-4.84-.86-9.47-2.36-13.9-6.02-17.61-23.32-30.37-43.84-30.37-25.57,0-46.21,19.87-46.21,44.27v38.61c0,86.9-73.5,157.33-164.2,157.33s-164.3-70.43-164.3-157.33v-83.4c0-24.5-20.63-44.27-46.21-44.27s-46.21,19.77-46.21,44.27v212.72c0,86.9-73.5,157.43-164.2,157.43s-164.3-70.53-164.3-157.43v-336.9c0-86.9,73.61-157.43,164.3-157.43s159.2,65.84,163.94,148.67"/><rect class="cls-1" x="1050.66" y="-615.14" width="3182.47" height="2705.09"/></g></g></svg>