<svg width="44" height="17" viewBox="0 0 44 17" fill="none" xmlns="http://www.w3.org/2000/svg">
<path d="M3.32344 14.375C1.48092 14.375 -0.0629618 12.8914 0.160097 11.0625C0.400362 9.09243 0.911059 7.41535 1.69219 6.03125C2.87969 3.92708 4.42135 2.39583 6.31719 1.4375C8.23385 0.479167 10.2547 0 12.3797 0C14.5047 0 16.4422 0.468749 18.1922 1.40625C19.963 2.32292 21.9839 3.77083 24.2547 5.75C25.7964 7.08333 27.0255 8.02083 27.9422 8.5625C28.8797 9.10417 29.9005 9.375 31.0047 9.375C32.7964 9.375 34.213 8.72917 35.2547 7.4375C35.7533 6.8092 36.1279 6.04722 36.3783 5.15157C36.8863 3.3342 38.3015 1.75 40.1885 1.75V1.75C42.0296 1.75 43.5722 3.23241 43.3496 5.05997C43.1095 7.03112 42.5987 8.70904 41.8172 10.0938C40.6505 12.1979 39.1089 13.7292 37.1922 14.6875C35.2755 15.6458 33.2547 16.125 31.1297 16.125C29.0047 16.125 27.0672 15.6667 25.3172 14.75C23.5672 13.8125 21.5464 12.3542 19.2547 10.375C17.7339 9.04167 16.5047 8.10417 15.5672 7.5625C14.6297 7.02083 13.6089 6.75 12.5047 6.75C10.8172 6.75 9.42135 7.34375 8.31719 8.53125C7.75674 9.13481 7.34684 9.94746 7.08748 10.9692C6.62334 12.7977 5.20993 14.375 3.32344 14.375V14.375Z" fill="#2A92D0"/>
</svg>
